<svg width="230" height="170" viewBox="0 0 230 170" fill="none" xmlns="http://www.w3.org/2000/svg">
<rect width="230" height="170" fill="white"/>
<path d="M51 55C43.1345 55.2623 35.687 58.6049 30.2631 64.3071C24.8391 70.0094 21.873 77.6146 22.0042 85.4834C22.1354 93.3522 25.3533 100.854 30.9643 106.373C36.5754 111.891 44.1301 114.983 52 114.983C59.8699 114.983 67.4246 111.891 73.0357 106.373C78.6467 100.854 81.8647 93.3522 81.9958 85.4834C82.127 77.6146 79.1609 70.0094 73.7369 64.3071C68.313 58.6049 60.8655 55.2623 53 55H51ZM93 55C85.1345 55.2623 77.687 58.6049 72.2631 64.3071C66.8391 70.0094 63.873 77.6146 64.0042 85.4834C64.1354 93.3522 67.3533 100.854 72.9643 106.373C78.5754 111.891 86.1301 114.983 94 114.983C101.87 114.983 109.425 111.891 115.036 106.373C120.647 100.854 123.865 93.3522 123.996 85.4834C124.127 77.6146 121.161 70.0094 115.737 64.3071C110.313 58.6049 102.866 55.2623 95 55H93ZM135 55C127.134 55.2623 119.687 58.6049 114.263 64.3071C108.839 70.0094 105.873 77.6146 106.004 85.4834C106.135 93.3522 109.353 100.854 114.964 106.373C120.575 111.891 128.13 114.983 136 114.983C143.87 114.983 151.425 111.891 157.036 106.373C162.647 100.854 165.865 93.3522 165.996 85.4834C166.127 77.6146 163.161 70.0094 157.737 64.3071C152.313 58.6049 144.866 55.2623 137 55H135ZM177 55C169.134 55.2623 161.687 58.6049 156.263 64.3071C150.839 70.0094 147.873 77.6146 148.004 85.4834C148.135 93.3522 151.353 100.854 156.964 106.373C162.575 111.891 170.13 114.983 178 114.983C185.87 114.983 193.425 111.891 199.036 106.373C204.647 100.854 207.865 93.3522 207.996 85.4834C208.127 77.6146 205.161 70.0094 199.737 64.3071C194.313 58.6049 186.866 55.2623 179 55H177Z" stroke="black" stroke-width="7"/>
</svg>
