<svg width="230" height="170" viewBox="0 0 230 170" fill="none" xmlns="http://www.w3.org/2000/svg">
<rect width="230" height="170" fill="white"/>
<path d="M150.556 85C150.556 104.65 134.65 120.556 115 120.556V85H150.556ZM115 49.4445V85H79.4445C79.4445 65.3503 95.3504 49.4445 115 49.4445Z" fill="#0166B1"/>
<path d="M115 49.4445C134.65 49.4445 150.556 65.3503 150.556 85H115V49.4445ZM79.4444 85H115V120.556C95.3503 120.556 79.4444 104.65 79.4444 85Z" fill="white"/>
<path d="M115 49.4444V51.3939C133.529 51.3939 148.606 66.4678 148.606 85H150.556C150.556 65.3644 134.636 49.4444 115 49.4444ZM115 118.606C96.4713 118.606 81.3939 103.532 81.3939 85H79.4444C79.4444 104.636 95.3644 120.556 115 120.556V118.606ZM115 25C81.8638 25 55 51.8638 55 85C55 118.136 81.8638 145 115 145C148.136 145 175 118.136 175 85C175 51.8638 148.136 25 115 25ZM171.098 85C171.098 115.981 145.984 141.098 115 141.098C84.0158 141.098 58.9017 115.981 58.9017 85C58.9017 54.0193 84.0193 28.9017 115 28.9017C145.981 28.9017 171.098 54.0193 171.098 85Z" fill="#6F6F6F"/>
<path d="M89.3593 56.0548C91.2767 54.0492 92.3622 51.732 90.4449 49.5199C89.4016 48.3193 87.65 48.0568 86.1979 48.6484L86.0534 48.7044L86.0992 48.5784C86.3142 48.0078 86.4516 46.1877 84.8903 44.9311C84.129 44.3186 83.1739 44.0911 82.2081 44.1891C80.4071 44.3711 79.022 45.5927 75.2508 49.7684C74.1124 51.0285 72.4559 53.0166 71.462 54.3047L81.8204 64.0632C85.2533 60.29 86.6525 58.8864 89.3593 56.0548ZM75.8429 53.6676C77.9294 51.1335 80.1463 48.8339 81.1508 47.9238C81.468 47.6368 81.8134 47.3498 82.2328 47.2378C82.913 47.0523 83.6144 47.5318 83.773 48.2248C83.9316 48.9214 83.4911 49.5829 83.0012 50.1289C81.898 51.3645 77.8519 55.5683 77.8519 55.5683L75.8429 53.6676ZM79.8996 57.4899C79.8996 57.4899 83.84 53.3526 85.1264 52.0296C85.6375 51.5045 85.9652 51.186 86.3177 51.0145C86.7724 50.794 87.2693 50.7485 87.7134 51.0425C88.1504 51.333 88.3513 51.8335 88.2421 52.3306C88.1117 52.9221 87.6253 53.4856 87.2235 53.9162C86.6807 54.4937 82.0072 59.4605 82.0002 59.4675L79.8996 57.4899ZM116.184 44.4166L119.501 37.0382L119.712 36.3836L119.652 37.0662L120.001 46.9263C121.164 47.0348 122.366 47.1958 123.55 47.3918L123.011 32.7889C121.355 32.6069 119.705 32.4774 118.056 32.4074L114.789 40.4614L114.672 41.0599L114.556 40.4614L111.292 32.4074C109.643 32.4774 107.993 32.6069 106.337 32.7889L105.798 47.3918C106.982 47.1958 108.184 47.0383 109.347 46.9263L109.696 37.0662L109.636 36.3836L109.847 37.0382L113.164 44.4166H116.184H116.184ZM143.728 59.681C144.542 60.549 145.716 61.9491 146.375 62.7997L158.513 55.1482C157.907 54.3607 156.941 53.1636 156.219 52.3201L148.532 57.3674L148.007 57.8154L148.398 57.2484L151.792 50.521L149.392 48.1373L142.614 51.508L142.043 51.8965L142.498 51.375L147.584 43.7446C146.689 42.9885 145.829 42.2955 144.733 41.4554L137.028 53.4996C138.004 54.2452 139.291 55.3407 140.112 56.0863L147.365 52.3481L147.831 52.0085L147.489 52.4706L143.728 59.681Z" fill="#6F6F6F"/>
</svg>
