<svg width="230" height="170" viewBox="0 0 230 170" fill="none" xmlns="http://www.w3.org/2000/svg">
<rect width="230" height="170" fill="white"/>
<g clip-path="url(#clip0_301_68)">
<path d="M158.606 96.21C157.249 94.7499 126.242 60.5098 115 60.5098C103.758 60.5098 72.7087 94.7434 71.3935 96.21C69.5426 98.346 68.434 101.03 68.2351 103.855C68.2351 106.988 68.4367 110.149 68.4367 110.178C68.4367 110.207 68.5199 111.664 69.2655 112.031C69.3844 112.084 69.5129 112.113 69.6431 112.114C69.9815 112.092 70.3043 111.963 70.5647 111.744C70.9039 111.458 102.539 83.493 115 83.493C127.461 83.493 159.096 111.404 159.419 111.677C159.682 111.903 160.011 112.037 160.357 112.06C160.487 112.06 160.616 112.031 160.734 111.976C161.48 111.609 161.55 110.275 161.563 110.124C161.576 109.972 161.765 106.933 161.765 103.8C161.555 100.994 160.447 98.3313 158.606 96.21ZM158.945 107.682C150.782 100.687 126.52 80.7689 115 80.7689C103.48 80.7689 79.2303 100.652 71.0671 107.644C71.0671 105.994 70.9743 104.984 70.9743 103.556C70.9835 101.736 71.6973 99.9903 72.9647 98.6898C83.9491 88.8011 96.3786 80.6658 109.819 74.568C115.352 72.2362 115.042 72.6736 115.042 63.2822C115.177 63.2725 115.313 63.2725 115.448 63.2822C123.243 63.9769 144.206 84.31 156.613 98.0497C158.008 99.6772 158.866 101.7 159.067 103.839C159.025 105.296 158.987 106.66 158.945 107.679V107.682Z" fill="#6C6C6C"/>
<path d="M138.974 126.462C135.042 126.382 131.042 126.462 131.013 126.462C126.213 126.462 122.296 129.817 122.296 133.93C122.296 138.044 126.2 141.508 131 141.508C131 141.508 135.067 141.591 138.962 141.508C143.762 141.508 147.691 138.102 147.691 133.93C147.691 129.759 143.867 126.587 138.974 126.462ZM136.261 139.436H133.752C132.268 139.474 130.83 138.92 129.751 137.895C128.672 136.871 128.04 135.46 127.992 133.969C128.013 133.242 128.175 132.527 128.471 131.864C128.767 131.201 129.19 130.603 129.715 130.105C130.241 129.606 130.859 129.216 131.535 128.957C132.21 128.699 132.93 128.577 133.653 128.598H133.726C134.571 128.553 135.416 128.553 136.261 128.598C136.984 128.563 137.707 128.673 138.388 128.92C139.069 129.167 139.696 129.547 140.231 130.037C140.766 130.528 141.199 131.12 141.506 131.779C141.813 132.438 141.988 133.152 142.021 133.879C142.021 133.908 142.021 133.937 142.021 133.965C141.972 135.456 141.34 136.867 140.261 137.891C139.182 138.915 137.744 139.47 136.261 139.433V139.436Z" fill="#6C6C6C"/>
<path d="M190.104 141.318H195V134.136C195 129.955 191.272 126.668 186.51 126.668H174.12C173.915 126.668 173.442 126.668 173.442 127.215V140.723C173.44 140.793 173.451 140.862 173.476 140.927C173.501 140.993 173.538 141.052 173.586 141.103C173.634 141.153 173.692 141.194 173.755 141.222C173.819 141.25 173.887 141.265 173.957 141.266H179.15V129.955C179.147 129.858 179.162 129.762 179.195 129.671C179.228 129.581 179.279 129.497 179.345 129.427C179.41 129.356 179.489 129.299 179.576 129.258C179.664 129.218 179.758 129.196 179.854 129.193H185.614C186.172 129.229 186.718 129.375 187.219 129.623C187.721 129.871 188.169 130.215 188.538 130.637C188.907 131.059 189.19 131.55 189.37 132.082C189.551 132.614 189.625 133.176 189.589 133.737C189.589 133.753 189.589 133.769 189.589 133.785V140.736C189.588 140.882 189.642 141.023 189.74 141.131C189.837 141.24 189.972 141.307 190.117 141.321L190.104 141.318Z" fill="#6C6C6C"/>
<path d="M86.7279 129.585H94.3631V127.253C94.3701 127.109 94.3198 126.967 94.2232 126.86C94.1266 126.753 93.9917 126.688 93.8479 126.681H72.5199C72.3762 126.677 72.2369 126.731 72.1326 126.831C72.0282 126.93 71.9673 127.067 71.9631 127.211V129.585H77.0351C77.8768 129.592 78.6826 129.929 79.2805 130.524C79.8784 131.12 80.221 131.926 80.2351 132.772V140.733C80.2413 140.878 80.3016 141.017 80.404 141.12C80.5064 141.224 80.6436 141.285 80.7887 141.292H85.9567V130.305C85.9667 130.108 86.0528 129.922 86.1968 129.788C86.3408 129.653 86.5314 129.581 86.7279 129.585Z" fill="#6C6C6C"/>
<path d="M63.176 140.732C63.1801 140.88 63.24 141.02 63.3436 141.124C63.4471 141.228 63.5864 141.288 63.7328 141.292H68.8976V127.24C68.8944 127.093 68.8347 126.953 68.7309 126.848C68.6272 126.744 68.4875 126.684 68.3408 126.681H63.7328C63.5862 126.684 63.4464 126.744 63.3427 126.848C63.239 126.953 63.1793 127.093 63.176 127.24V140.732Z" fill="#6C6C6C"/>
<path d="M114.254 141.318H119.934C119.841 137.802 116.206 136.342 115.774 136.172H115.691V135.966H115.761C116.85 135.778 117.844 135.226 118.582 134.401C119.32 133.575 119.759 132.523 119.829 131.415C119.829 129.138 117.617 126.7 114.069 126.7H100.411C100.025 126.694 99.6414 126.765 99.2825 126.909C98.9236 127.052 98.5963 127.265 98.3194 127.536C98.0424 127.807 97.8212 128.129 97.6684 128.486C97.5156 128.842 97.4341 129.226 97.4287 129.614C97.4271 129.637 97.4271 129.661 97.4287 129.685V140.723C97.4261 140.864 97.4786 141 97.575 141.102C97.6714 141.204 97.8038 141.265 97.9439 141.27H103.137V136.085H108.008C109.521 135.972 111.019 136.455 112.185 137.431C113.35 138.408 114.092 139.801 114.254 141.318ZM103.134 133.538V130.598C103.134 130.419 103.169 130.242 103.238 130.076C103.306 129.911 103.406 129.76 103.532 129.634C103.658 129.507 103.807 129.407 103.972 129.338C104.136 129.27 104.313 129.234 104.491 129.234H112.097C112.662 129.234 113.203 129.46 113.602 129.861C114.001 130.262 114.225 130.806 114.225 131.373C114.225 131.94 114.001 132.484 113.602 132.886C113.203 133.287 112.662 133.512 112.097 133.512L103.134 133.538Z" fill="#6C6C6C"/>
<path d="M54.4848 131.589H60.0592C59.3181 129.993 58.1312 128.649 56.643 127.72C55.1549 126.791 53.4299 126.317 51.6784 126.356H49.9696C47.2592 126.285 46.0656 126.272 43.72 126.356C41.4606 126.313 39.2657 127.114 37.56 128.604C36.7612 129.268 36.1178 130.101 35.6753 131.043C35.2329 131.985 35.0023 133.014 35 134.056C35 138.237 38.7024 141.524 43.6112 141.685C46.9872 141.81 47.3392 141.81 51.7456 141.685C55.8128 141.562 58.7856 139.697 60.0304 136.452H54.472C54.3753 136.449 54.2798 136.474 54.1957 136.522C54.1117 136.57 54.0424 136.64 53.9952 136.725C53.4769 137.599 52.7395 138.32 51.8567 138.817C50.974 139.315 49.9767 139.57 48.9648 139.559H46.4432C45.7115 139.582 44.9823 139.461 44.2974 139.201C43.6125 138.941 42.9852 138.548 42.4514 138.044C41.9177 137.541 41.4879 136.936 41.1867 136.266C40.8855 135.595 40.7188 134.871 40.696 134.136V134.107C40.7109 133.372 40.8701 132.647 41.1644 131.974C41.4587 131.301 41.8824 130.694 42.411 130.186C42.9396 129.678 43.5628 129.28 44.2449 129.014C44.927 128.749 45.6544 128.622 46.3856 128.639H48.9648C49.9574 128.622 50.9383 128.858 51.8157 129.325C52.6931 129.791 53.4386 130.474 53.9824 131.309C54.0349 131.395 54.1088 131.466 54.1969 131.515C54.2849 131.564 54.3841 131.59 54.4848 131.589Z" fill="#6C6C6C"/>
<path d="M170.376 138.687H156.92C156.826 138.694 156.731 138.683 156.642 138.654C156.552 138.624 156.469 138.577 156.398 138.515C156.326 138.453 156.268 138.378 156.226 138.293C156.183 138.208 156.158 138.116 156.152 138.021C156.15 137.998 156.15 137.974 156.152 137.95V135.226H167.893V132.554H156.206V130.006C156.204 129.82 156.272 129.64 156.395 129.501C156.583 129.339 156.826 129.256 157.073 129.27H170.443V127.211C170.447 127.137 170.436 127.062 170.411 126.992C170.385 126.922 170.346 126.858 170.296 126.803C170.153 126.691 169.975 126.632 169.793 126.639H150.987C150.843 126.633 150.703 126.684 150.597 126.781C150.49 126.877 150.426 127.013 150.417 127.157C150.414 127.175 150.414 127.193 150.417 127.211V138.291C150.415 138.682 150.489 139.068 150.636 139.43C150.782 139.791 150.998 140.12 151.271 140.397C151.545 140.675 151.87 140.895 152.228 141.046C152.586 141.197 152.97 141.275 153.358 141.276H169.819C169.962 141.27 170.097 141.212 170.2 141.112C170.255 141.066 170.3 141.008 170.33 140.942C170.36 140.876 170.376 140.805 170.376 140.733V138.687Z" fill="#6C6C6C"/>
<path d="M166.2 121.393C165.594 121.055 164.912 120.877 164.219 120.877C163.526 120.877 162.844 121.055 162.238 121.393C161.71 121.715 161.304 122.155 160.68 122.155C160.056 122.155 159.691 121.721 159.134 121.393C158.527 121.054 157.844 120.875 157.149 120.875C156.454 120.875 155.77 121.054 155.163 121.393C154.927 121.497 154.725 121.666 154.581 121.881C154.436 122.095 154.355 122.347 154.347 122.606C154.364 122.863 154.448 123.11 154.591 123.323C154.735 123.536 154.932 123.707 155.163 123.818C155.766 124.171 156.456 124.346 157.154 124.323C157.829 124.344 158.499 124.184 159.093 123.86C159.582 123.561 160.123 123.056 160.693 123.056C161.27 123.168 161.807 123.431 162.251 123.818C162.853 124.165 163.538 124.339 164.232 124.323C164.935 124.351 165.631 124.176 166.238 123.818C166.467 123.706 166.661 123.534 166.802 123.321C166.942 123.108 167.024 122.861 167.038 122.606C167.03 122.346 166.948 122.093 166.801 121.879C166.655 121.664 166.451 121.495 166.213 121.393H166.2Z" fill="#6C6C6C"/>
<path d="M158.565 63.6649C157.211 62.2079 126.226 28 115 28C103.774 28 72.76 62.2079 71.4352 63.6649C69.5879 65.7978 68.4805 68.4764 68.28 71.297C68.28 74.4297 68.4976 77.5912 68.4976 77.6202C68.4976 77.6491 68.5808 79.1061 69.3104 79.4599C69.4343 79.5171 69.5679 79.5499 69.704 79.5564C70.0387 79.5346 70.3574 79.4048 70.6128 79.1865C70.952 78.8874 102.558 51.0058 115.006 51.0058C127.454 51.0058 159.061 78.8874 159.387 79.1736C159.649 79.3922 159.97 79.5257 160.309 79.5564C160.445 79.5499 160.579 79.5171 160.702 79.4599C161.432 79.1061 161.515 77.7713 161.515 77.6202C161.515 77.469 161.733 74.4297 161.733 71.297C161.531 68.4757 160.421 65.7969 158.571 63.6649H158.565ZM158.904 75.1276C150.77 68.1355 126.498 48.2623 115 48.2623C103.502 48.2623 79.272 68.1323 71.1088 75.1212C71.1088 73.4744 71.0128 72.397 71.0128 71.0333C71.017 69.2118 71.7156 67.4611 72.9648 66.1414C83.9407 56.2646 96.3566 48.1352 109.781 42.0357C115.32 39.7071 115 40.1413 115 30.766C115.135 30.7531 115.271 30.7531 115.406 30.766C123.189 31.4607 144.139 51.768 156.533 65.5014C157.928 67.1289 158.786 69.1519 158.987 71.2906C158.987 72.6736 158.946 74.0502 158.904 75.1276Z" fill="#6C6C6C"/>
</g>
<defs>
<clipPath id="clip0_301_68">
<rect width="160" height="113.778" fill="white" transform="translate(35 28)"/>
</clipPath>
</defs>
</svg>
