<?xml version="1.0" encoding="utf-8"?>
<!DOCTYPE svg PUBLIC "-//W3C//DTD SVG 1.1//EN" "http://www.w3.org/Graphics/SVG/1.1/DTD/svg11.dtd">
<!-- Generator: Adobe Illustrator 25.3.0, SVG Export Plug-In . SVG Version: 6.00 Build 0)  -->
<svg version="1.1" id="Calque_1" xmlns="http://www.w3.org/2000/svg" xmlns:xlink="http://www.w3.org/1999/xlink" x="0px" y="0px"
	 viewBox="0 0 228 191.5" style="enable-background:new 0 0 228 191.5;" xml:space="preserve">
<style type="text/css">
	.path0{opacity:0.1;fill:#00A9FB;}
	.path1{fill:#A8CCFF;}
	.path2{fill:#11589A;}
	.path3{fill-rule:evenodd;clip-rule:evenodd;fill:#11589A;}
	.path4{fill:#FFFFFF;}
	.path5{opacity:0.8;fill:#03A9F5;}
	.path6{fill:#161616;}
	.path7{fill:#282828;}
	.path8{fill:#D5D5D5;}
	.path9{fill:#03A9F5;}
	.path10{opacity:0.3;}
	.path11{opacity:0.3;fill:#333333;}
	.path12{opacity:0.4;}
	.path13{fill:#840606;}
	.path14{fill:#0C0000;}
	.path15{fill:#0279A3;}
	.path16{fill:#C6C6C6;}
	.path17{fill:none;stroke:#0279A3;stroke-width:0.2261;stroke-miterlimit:10;}
	.path18{fill:none;stroke:#0279A3;stroke-width:0.2261;stroke-linecap:round;stroke-linejoin:round;stroke-miterlimit:10;}
	.path19{fill:#F7A491;}
	.path20{fill:#0D5082;}
	.path21{fill:#271651;}
	.path22{fill:#F29400;}
	.path23{fill:#F47458;}
</style>
<g>
	<path class="path0" d="M223.1,140.5c5.4-41.9-12.9-69.8-47.4-80.1C153.3,53.7,129,52.5,124,25C118.9-2.6,70,1.4,52.8,8.9
		C28.4,19.5,3.2,40,4,77.9c0.8,37.9,18.1,62.6,43.7,83.1c25.6,20.5,55.8,24.9,75.9,26.6C155.6,190.3,217.4,184.4,223.1,140.5z"/>
	<g>
		<g>
			<g>
				<path class="path1" d="M20.8,43.4c0.7-0.6,1.5-0.9,2.4-0.8C32.7,43.4,50.4,38.8,62,27c0.8-0.8,2.3-0.4,3.2,0.3
					c12.9,9.6,34.2,11.6,41.6,12c1.5,0.1,2.8,1.3,2.9,2.8c6.7,65.1-35.6,88.6-44.4,92.8c-1,0.5-2.1,0.4-3-0.2
					c-43.8-27.3-41.9-62.7-42.5-89C19.8,44.8,20.1,44,20.8,43.4z"/>
				<path class="path2" d="M64.1,130.1c-0.2,0-0.4-0.1-0.5-0.1c-16.8-10.7-27.7-23.5-33.4-39.2c-5.1-14-5.4-28.2-5.6-40.8
					c0-0.6,0-1.1,0-1.7c0-0.3,0.1-0.5,0.3-0.7c0.2-0.2,0.4-0.3,0.7-0.3c0,0,0,0,0,0h0c5.5,0,12-1.3,18.4-3.6
					c7.3-2.7,13.9-6.6,19.1-11.3c0.3-0.3,0.8-0.3,1.2-0.1c5.4,3.6,17.8,9.8,40.1,11.5c0.5,0,0.8,0.4,0.9,0.9
					c2.2,25.4-3.1,46.8-15.7,63.7c-9.4,12.6-20.6,19.2-25,21.5C64.4,130.1,64.3,130.1,64.1,130.1z M64.4,129.8l0.1,0.1L64.4,129.8
					c4.4-2.2,15.5-8.8,24.9-21.4c12.6-16.9,17.8-38.3,15.6-63.6c0-0.3-0.3-0.6-0.6-0.6c-4.5-0.3-11.5-1.1-18.8-2.9
					c-8.6-2.1-15.8-5-21.4-8.7c-0.3-0.2-0.6-0.2-0.9,0.1C57.9,37.4,51.3,41.3,44,44c-6.4,2.3-12.9,3.6-18.5,3.6h0c0,0,0,0,0,0
					c-0.2,0-0.4,0.1-0.5,0.2c-0.1,0.1-0.2,0.3-0.2,0.5c0,0.6,0,1.1,0,1.7c0.2,12.5,0.5,26.7,5.6,40.7c5.7,15.6,16.6,28.4,33.3,39.1
					C63.9,129.9,64.2,129.9,64.4,129.8z"/>
			</g>
			<path class="path3" d="M57.3,101.2c1.2,1.3,3,1.3,4.1,0L94,65.8c1.2-1.3,1.3-3.3,0.2-4.7c-0.7-0.5-1.5-0.9-2.3-0.9
				c-0.8,0-1.5,0.4-2,0.9L59.4,94.4L45.3,78.9c-0.7-0.7-1.3-1.1-2.1-1.1c-0.8,0-1.5,0.4-2,0.9c-0.7,0.7-1,1.4-1,2.3
				c0,0.9,0.3,1.6,0.8,2.3L57.3,101.2z"/>
		</g>
		<g>
			<path d="M197,151.6h-1.1l-29,7.1c0,0-4-1.9-5.4-4.9c0,0-0.6-20.6,11-22.9c11.6-2.3,19.5-1,23.5,6.1s2.6,14,2.6,14L197,151.6z"/>
			<path d="M31.2,154c0,0,3.8,1,4.1,1.8c0.8,0.2,1.4-1.3,0.9-1.8l1.1-0.3l28.9,4.4c0,0,2.5-0.9,4.1-3.4l1.7-10.1l-8.6-13l-11.8-3
				l-11,4.5l-6.7,12L31.2,154z"/>
			<path class="path4" d="M209.7,143.2c0-1.2-0.5-8.3-0.5-8.3c-0.4-1.4-2.9-2.4-2.9-2.4c-2.1-0.9-2.5-2-2.5-2c-1.2-2,0.8-5,0.8-5
				c1.8-2.5-0.1-4.2-0.1-4.2c1.3-1.7,0.2-4,0.2-4c-1.9-2.4-5.1-4.5-5.1-4.5c-3.5,0-5.1-1.6-5.1-1.6l-9.9-6.3l-6.8-4.1
				c-3-1.7-3.5-2.8-3.5-2.8l-0.5-0.8l-1-0.6c-2.6-0.4-11.4-1.3-11.4-1.3c-4.4-0.7-17.7-1.2-17.7-1.2c-8.3-0.4-28.3,0.5-28.3,0.5
				c-6.4,0.5-13.3,2.3-13.3,2.3c-5,1.9-16.2,7.2-16.2,7.2c-16.9,9.7-19.4,11.7-19.4,11.7h-2.3l-4.8,0.2c-18.3,1.7-23.6,3-23.6,3
				c-8,1.3-13.6,6.3-13.6,6.3c-3.1,2.5-3.9,4.3-3.9,4.3c-1.5,2.9-1.8,11-1.8,11c-0.1,1.3,0.5,4.5,0.5,4.5c0.5,0.7,0.5,2.2,0.5,2.2
				l-0.8,3.1c-1.5,2.1,1.2,2.2,1.2,2.2l7.2,1.1c2.2-0.1,6.8,0.5,6.8,0.5l2.8-0.9c-0.9-6.4,2.3-13.8,2.3-13.8c8.9-15.8,25.5-7,25.5-7
				c13,7.2,7.7,22.2,7.7,22.2h12.1l70.3-0.7l8.7-0.1c-1.5-15.2,8.7-22.1,8.7-22.1c12.4-6.6,22.7,1.5,22.7,1.5
				c8.3,7.7,4.4,18.7,4.4,18.7c8.4-0.8,8.7-1,9.3-1.6c0.6-0.5,2.3-3.5,2.3-3.5C209.9,145.8,209.7,143.2,209.7,143.2z M122.7,115.2
				l-32.5,1.7c0,0-0.5-6.9-3-7.1v-0.6c0,0,15-12.1,39.9-11.5L122.7,115.2z M159.4,114l-26.6,0.8l1.1-17.6c0,0,21.8,0.7,26.2,2.3
				L159.4,114z M165.3,113.5l-4.4,0.2l0.6-14.1c2.2,0.1,4.6,1.5,4.6,1.5c2.9,1.9,2.5,7.8,2.5,7.8C169,113.9,165.3,113.5,165.3,113.5
				z"/>
			<path class="path5" d="M209.7,143.2c0-1.2-0.5-8.3-0.5-8.3c-0.4-1.4-2.9-2.4-2.9-2.4c-2.1-0.9-2.5-2-2.5-2c-1.2-2,0.8-5,0.8-5
				c1.8-2.5-0.1-4.2-0.1-4.2c1.3-1.7,0.2-4,0.2-4c-1.9-2.4-5.1-4.5-5.1-4.5c-3.5,0-5.1-1.6-5.1-1.6l-9.9-6.3l-6.8-4.1
				c-3-1.7-3.5-2.8-3.5-2.8l-0.5-0.8l-1-0.6c-2.6-0.4-11.4-1.3-11.4-1.3c-4.4-0.7-17.7-1.2-17.7-1.2c-8.3-0.4-28.3,0.5-28.3,0.5
				c-6.4,0.5-13.3,2.3-13.3,2.3c-5,1.9-16.2,7.2-16.2,7.2c-16.9,9.7-19.4,11.7-19.4,11.7h-2.3l-4.8,0.2c-18.3,1.7-23.6,3-23.6,3
				c-8,1.3-13.6,6.3-13.6,6.3c-3.1,2.5-3.9,4.3-3.9,4.3c-1.5,2.9-1.8,11-1.8,11c-0.1,1.3,0.5,4.5,0.5,4.5c0.5,0.7,0.5,2.2,0.5,2.2
				l-0.8,3.1c-1.5,2.1,1.2,2.2,1.2,2.2l7.2,1.1c2.2-0.1,6.8,0.5,6.8,0.5l2.8-0.9c-0.9-6.4,2.3-13.8,2.3-13.8c8.9-15.8,25.5-7,25.5-7
				c13,7.2,7.7,22.2,7.7,22.2h12.1l70.3-0.7l8.7-0.1c-1.5-15.2,8.7-22.1,8.7-22.1c12.4-6.6,22.7,1.5,22.7,1.5
				c8.3,7.7,4.4,18.7,4.4,18.7c8.4-0.8,8.7-1,9.3-1.6c0.6-0.5,2.3-3.5,2.3-3.5C209.9,145.8,209.7,143.2,209.7,143.2z M122.7,115.2
				l-32.5,1.7c0,0-0.5-6.9-3-7.1v-0.6c0,0,15-12.1,39.9-11.5L122.7,115.2z M159.4,114l-26.6,0.8l1.1-17.6c0,0,21.8,0.7,26.2,2.3
				L159.4,114z M165.3,113.5l-4.4,0.2l0.6-14.1c2.2,0.1,4.6,1.5,4.6,1.5c2.9,1.9,2.5,7.8,2.5,7.8C169,113.9,165.3,113.5,165.3,113.5
				z"/>
			<g>
				<path class="path6" d="M197.1,151.9l3.6-0.4v-6.6c0,0-0.6-9.7-8.5-15.1c0,0-9.1-6.7-21.9-1.5c0,0-10.4,4.2-11.2,18.3v7.2h3.6
					c0,0-2.2-15.8,10.1-21.4c0,0,11.3-5.7,20.6,4.3C193.3,136.8,198.3,142.1,197.1,151.9z"/>
				<path class="path6" d="M73.8,154.4h-3.4c0,0,2.8-17.2-12.2-22.4c0,0-12.6-4.2-19.8,7.4c0,0-3.8,5.1-2.4,15l-3.7-0.4
					c0,0-3.1-18.1,12-25.4c0,0,16.5-6.7,25.9,7.5C70.2,136.1,75.1,142.7,73.8,154.4z"/>
			</g>
			<g>
				<ellipse class="path6" cx="53.1" cy="149.3" rx="15.9" ry="15.6"/>
				<g>
					<circle class="path7" cx="53" cy="149.2" r="6.5"/>
					<g>
						<polygon class="path8" points="50.6,138.2 52.1,146.2 52.7,146.7 52.7,137.8 						"/>
						<polygon class="path8" points="44.2,141.6 45.3,140.8 50.3,144.4 50.3,145.4 						"/>
						<path class="path7" d="M50.6,138.2l-5.3,2.7l5,3.6v1l1.2,0.6l0.6,0.2L50.6,138.2z M47.9,139.8l1.3-0.8l0.5,2.4L47.9,139.8z"/>
					</g>
					<g>
						<polygon class="path8" points="57.6,138.5 55.8,145.6 56.9,144.9 58.6,139 						"/>
						<polygon class="path8" points="55.4,147.8 62.5,143.7 63.4,145.3 55.4,148.5 						"/>
						<path class="path7" d="M58.5,139.4l-1.6,5.5l-1.1,0.8l-0.4,2.2l7.1-4.2C62.9,142.4,58.5,139.4,58.5,139.4z M59.5,143.7l0.8-2.2
							l1.3,1.2L59.5,143.7z"/>
					</g>
					<g>
						<polygon class="path8" points="57.4,150.9 58,151.7 64.4,151.3 64.4,150.2 						"/>
						<polygon class="path8" points="55.2,151.9 55.8,151.4 61.6,156.8 60,158.2 						"/>
						<path class="path7" d="M64,151.4l-6,0.3l-1.2-1.1l-1.1,0.8l5.8,5.5C61.6,156.8,64.6,152.8,64,151.4z M62.1,155.6l-1.9-1.8
							l2.9,0.2L62.1,155.6z"/>
					</g>
					<g>
						<polygon class="path8" points="52.7,154 52.1,154.8 54.6,160.6 55.5,160.3 						"/>
						<polygon class="path8" points="46.6,158.5 48.5,159.7 52.1,151.9 50.9,152.2 						"/>
						<path class="path7" d="M52.1,154.8l0.5-0.8l-0.5-2l-3.6,7.8c0,0,2.7,0.9,6,0.7L52.1,154.8z M49.8,159.7l1.2-2.2l0.5,2.6
							C51.6,160.1,49.8,159.8,49.8,159.7z"/>
					</g>
					<g>
						<polygon class="path8" points="47.3,150.2 48.5,150.3 43.1,155.3 42.7,154 						"/>
						<polygon class="path8" points="41.9,146.1 41.5,148.1 49.9,149.2 50.5,148.5 						"/>
						<path class="path7" d="M41.5,148.1c0,0,0.3,4.7,1.2,5.8l4.6-3.8l1.2,0.2l1.4-1.2L41.5,148.1z M42,151.4
							c-0.3-0.2-0.3-1.9-0.3-1.9l2.9,0.5L42,151.4z"/>
					</g>
					<circle class="path8" cx="53" cy="149.2" r="3.9"/>
					<g>
						<g>
							<path class="path8" d="M53,138.2c6,0,11,4.9,11,11s-4.9,11-11,11s-11-4.9-11-11S46.9,138.2,53,138.2 M53,137.3
								c-6.5,0-11.9,5.3-11.9,11.9S46.4,161,53,161c6.5,0,11.9-5.3,11.9-11.9S59.5,137.3,53,137.3L53,137.3z"/>
						</g>
					</g>
				</g>
			</g>
			<g>
				<ellipse class="path6" cx="179.9" cy="149.3" rx="15.9" ry="15.6"/>
				<g>
					<circle class="path7" cx="179.9" cy="149.2" r="6.5"/>
					<g>
						<polygon class="path8" points="177.5,138.2 179,146.2 179.6,146.7 179.6,137.8 						"/>
						<polygon class="path8" points="171.1,141.6 172.2,140.8 177.2,144.4 177.2,145.4 						"/>
						<path class="path7" d="M177.5,138.2l-5.3,2.7l5,3.6v1l1.2,0.6l0.6,0.2L177.5,138.2z M174.8,139.8l1.3-0.8l0.5,2.4L174.8,139.8z"
							/>
					</g>
					<g>
						<polygon class="path8" points="184.5,138.5 182.7,145.7 183.8,144.9 185.4,139 						"/>
						<polygon class="path8" points="182.3,147.9 189.4,143.7 190.3,145.3 182.3,148.5 						"/>
						<path class="path7" d="M185.3,139.4l-1.6,5.5l-1.1,0.8l-0.4,2.2l7.1-4.2C189.8,142.4,185.3,139.4,185.3,139.4z M186.4,143.7
							l0.8-2.2l1.3,1.2L186.4,143.7z"/>
					</g>
					<g>
						<polygon class="path8" points="184.3,150.9 184.9,151.7 191.3,151.3 191.3,150.2 						"/>
						<polygon class="path8" points="182.1,151.9 182.7,151.4 188.5,156.8 186.9,158.2 						"/>
						<path class="path7" d="M190.9,151.4l-6,0.3l-1.2-1.1l-1.1,0.8l5.8,5.5C188.5,156.8,191.5,152.8,190.9,151.4z M189,155.6
							l-1.9-1.8l2.9,0.2L189,155.6z"/>
					</g>
					<g>
						<polygon class="path8" points="179.6,154 179,154.8 181.5,160.6 182.4,160.3 						"/>
						<polygon class="path8" points="173.5,158.5 175.4,159.7 179,151.9 177.8,152.3 						"/>
						<path class="path7" d="M179,154.8l0.5-0.8l-0.5-2l-3.6,7.8c0,0,2.7,0.9,6,0.7L179,154.8z M176.7,159.7l1.2-2.2l0.5,2.6
							C178.5,160.1,176.6,159.9,176.7,159.7z"/>
					</g>
					<g>
						<polygon class="path8" points="174.2,150.2 175.3,150.4 170,155.3 169.6,154 						"/>
						<polygon class="path8" points="168.8,146.1 168.4,148.2 176.7,149.2 177.4,148.5 						"/>
						<path class="path7" d="M168.4,148.2c0,0,0.3,4.7,1.2,5.8l4.6-3.8l1.2,0.2l1.4-1.2L168.4,148.2z M168.9,151.4
							c-0.3-0.2-0.3-1.9-0.3-1.9l2.9,0.5L168.9,151.4z"/>
					</g>
					<circle class="path8" cx="179.9" cy="149.2" r="3.9"/>
					<g>
						<g>
							<path class="path8" d="M179.9,138.2c6,0,11,4.9,11,11s-4.9,11-11,11s-11-4.9-11-11S173.8,138.2,179.9,138.2 M179.9,137.3
								c-6.5,0-11.9,5.3-11.9,11.9c0,6.5,5.3,11.9,11.9,11.9c6.5,0,11.9-5.3,11.9-11.9C191.7,142.6,186.4,137.3,179.9,137.3
								L179.9,137.3z"/>
						</g>
					</g>
				</g>
			</g>
			<g>
				<path d="M166.4,99.8c-5.4-2.7-23.3-3.2-23.3-3.2c-15.6-0.8-28.2,0.6-28.2,0.6c-13.5,1.4-21.6,6.9-30.9,12.6
					c-9.3,5.7-9.1,8.6-9.1,8.6l14.2-0.8l38.5-1.9l37.1-1.4c5.9,0.3,5.4-5.9,5.4-5.9C170.4,101,166.4,99.8,166.4,99.8z M122.7,115.2
					l-32.5,1.7c0,0-3.8-3.1-3-7.1v-0.6c0,0,15-12.1,39.9-11.5L122.7,115.2z M159.4,114l-26.6,0.8l1.1-17.6c0,0,21.8,0.7,26.2,2.3
					L159.4,114z M165.3,113.5l-4.4,0.2l0.6-14.1c2.2,0.1,4.6,1.5,4.6,1.5c2.9,1.9,2.5,7.8,2.5,7.8
					C169,113.9,165.3,113.5,165.3,113.5z"/>
				<path class="path9" d="M75.7,117.7l8.1,0l-3.1-2.6C80.7,115.1,76.8,115.8,75.7,117.7z"/>
				<path class="path9" d="M80.7,115.1c0,0-0.5-2.4,1.5-3.1l3.6-2.2c0,0,2.6-0.4,3.7,0.9c0,0,1.3,1.2,1.2,2.7l-0.1,2.9
					c0,0-0.1,1.2-4.3,1.3C86.2,117.6,80.8,118.6,80.7,115.1z"/>
				<g class="path10">
					<path d="M161.5,99.5l-0.6,14.1l4.4-0.2c0,0,3.7,0.4,3.3-4.7c0,0,0.4-5.9-2.5-7.8C166.1,101,163.8,99.6,161.5,99.5z"/>
					<path d="M160.1,99.5l-0.8,14.5l-26.6,0.8l1.1-17.6C134,97.2,155.8,97.9,160.1,99.5z"/>
				</g>
				<path class="path11" d="M87.2,109.1v0.6c2.5,0.2,3,7.1,3,7.1l32.5-1.7l4.4-17.5C102.2,97,87.2,109.1,87.2,109.1z"/>
			</g>
			<g>
				<path d="M184.3,104.7l0.4-3c0,0,3.2-1.5,4.1-3.2c0,0,0.5-0.4-1.7-0.3l-13.5-1C173.6,97.2,174.6,100.2,184.3,104.7z"/>
				<path class="path12" d="M184.3,104.7l0.2-1.5c0,0,6.7,3.6,11.2,6.9c0,0,3,1.9,3.9,2.6c0,0-3.1,0.1-5.1-1.6
					C194.5,111.2,188.8,107.7,184.3,104.7z"/>
				<path d="M196.1,110.4c0,0,1.4-0.6,2,0c0.6,0.6-0.1,1.2-0.1,1.2L196.1,110.4z"/>
			</g>
			<path class="path13" d="M204.5,121.2c0,0,1.3-1.9,0.2-4c0,0-0.6-1.6-3.2-2.1c0,0-5.3-1.8-10.1-1.1c0,0-1.7,0.5-2.3,1.4
				c0,0-0.9,0.9,1.3,2c0,0,5.1,3.5,8.4,4C198.7,121.4,202.5,121.7,204.5,121.2z"/>
			<g>
				<path class="path14" d="M209.1,136.7l-2.1,8.3c0,0-0.4,0.6-0.4,5.3c0,0,1.9-2.1,3-5.6C209.7,144.6,210,141.9,209.1,136.7z"/>
				<path class="path13" d="M207.2,145.7l-0.3,1.5c0,0,1.4,0.2,2-1l0.4-0.9L207.2,145.7z"/>
			</g>
			<g>
				<g>
					<path class="path15" d="M149.9,123.9c0,0,3.5-3.7,12.7-1.9c0,0,2.7,1.9-2,3.9C153.3,127,149.4,124.9,149.9,123.9z"/>
					<path class="path9" d="M153.6,122.9l6.2-0.2l3.1,0.1c0,0,0.5,1.6-2.3,2.2h-9.2c0,0-0.9-0.5-0.7-1.1
						C150.9,123.3,153.6,122.9,153.6,122.9z"/>
				</g>
				<g>
					<path class="path15" d="M110.8,125.2c0,0,3.5-3.7,12.7-1.9c0,0,2.7,1.9-2,3.9C114.2,128.3,110.3,126.1,110.8,125.2z"/>
					<path class="path9" d="M114.5,124.1l6.2-0.2l3.1,0.1c0,0,0.5,1.6-2.3,2.2h-9.2c0,0-0.9-0.5-0.7-1.1S114.5,124.1,114.5,124.1z"/>
				</g>
			</g>
			<g>
				<path d="M161.3,95.4l4.8,0.3c0,0,0.4-0.4,1.4-2.2l4.2-5.6c0,0,0.2-0.5-0.5-0.3s-4.5,5.9-4.5,5.9S162.9,92.9,161.3,95.4z"/>
				<path class="path16" d="M66.5,115.6l5.4-0.5c0,0,16.4-12.3,30.1-17l-2.6-0.4C99.4,97.7,80,105.6,66.5,115.6z"/>
				<path d="M102,98.2l-2.6-0.4c0,0,5.9-3.2,23.3-3.7s31.2,0.3,38.7,1.1l11.3,1.4l1.2,0.7c0,0-7.4-0.9-16.3-1.7c0,0-8-1-25.6-1.1
					C132,94.4,114.2,94,102,98.2z"/>
			</g>
			<path class="path15" d="M19.8,128.5c0,0,4.1-4.1,20.9-5.6c0,0-8.7,8.1-11.7,8.7l-6.9-1.4l-2.3-0.1l0.6-0.9L19.8,128.5z"/>
			<g>
				<path class="path17" d="M178.7,116.9h5.8c0,0,3.3,1.4,4.3,3.3c-0.6,5-2.9,5.3-2.9,5.3s-5.9,0.7-9.6,0c0,0-1.9-0.3-1.1-2.9
					C175.9,120,177.5,116.9,178.7,116.9z"/>
				<path class="path18" d="M64.6,115.9c0,0-1.1,1.3-2.9,3.1c-1.8,1.8-5.3,2-5.3,2l-15.6,1.8c-14.5,1.3-21.5,5.9-21.5,5.9
					s-0.4,0.2-0.6,0.6"/>
				<path class="path17" d="M74.7,118.4c0,0-2.8,5.1-2.3,6.8c0,0-0.8,2.9,1.6,16.3l2.1,9.7l50.2-0.7L148,150c0,0,6-0.1,7.5-3.1
					c1.6-2.3,2.4-4,11.1-21.3l2.9-6l0.7-2.2c0,0,0.5-1.3,0-2.8l-1.1-2.2"/>
				<path class="path17" d="M127.5,115.9c0,0-1.3,5.8-1.4,11.8c0,0-0.5,14.6,0.2,22.7"/>
			</g>
			<g>
				<path class="path4" d="M27.4,131.8l1.6-0.2c0,0-2.4,2.5-3.4,5.5c0,0-1.4,4.1-2.4,10l-0.7,0.3c0,0,0.6-7.6,2.8-12.3
					C25.3,135.1,26.5,133.1,27.4,131.8z"/>
				<path class="path4" d="M40.6,122.9c0,0-14.4,0.1-18.2,5.4c0,0-0.8,2.1,0,4.2l4.8-0.7c0,0,3.4-0.3,3.9-1.2L40.6,122.9z"/>
			</g>
		</g>
		<g>
			<g>
				<g>
					<path class="path19" d="M168.9,156.1c0,0-0.3,3.9-0.1,5.2c0.1,0.7,0.9,2.1,0.5,2.7c-0.3,0.6-0.7,0.8-0.7,0.8l-9,0.1
						c-0.5,0-0.2-0.3,0.2-0.6c0.6-0.5,1.2-0.8,3.2-1.8c0.1-0.1,0.6-0.4,0.8-0.5c0.5-0.3,0.9-0.7,1.3-1.1c0.6-0.7,0.7-4.2,0.7-4.2
						L168.9,156.1z"/>
					<path class="path20" d="M161.8,104.1c0,0-3.9-1.9-3.1,2.2c0.7,4.2,6.4,51,6.4,51l5.3,0.3c0,0,0.7-15.6,0.5-17.8
						c-0.1-2.2-1-5.7-1-5.7l-0.5-13.8l-5-17.1L161.8,104.1z"/>
					<path class="path2" d="M163.9,162.1c2.4,0.6,4.2,0.2,5.1-0.2c0.3,0.7,0.6,1.6,0.4,2.1c-0.2,0.6-0.5,0.9-0.8,0.9
						c-2.2,0.1-8,0-9.7,0c-0.2,0-0.4-0.3-0.2-0.4C159.1,164,163.7,162.2,163.9,162.1z"/>
					<path class="path19" d="M158.7,76c0,0-3.3-6.3-3.8-8.6c-0.5-2.3-2.3-14-2.1-14.7c0.1-0.8,2.9-2.6,2.6-3.2c-0.3-0.6-3-0.6-3.6-0.6
						c-0.6,0.1-1.8,0.4-2.4,0.8c-0.5,0.4,0.6,14.4,0.9,17.4c0.3,3,4.4,12.3,4.4,12.3L158.7,76z"/>
					<g>
						<path class="path19" d="M184.2,125.2c0,0,2.7-2.8,3.3-4c0.3-0.6,0.6-2.2,1.3-2.5c0.7-0.3,1.1-0.2,1.1-0.2l7.1,5.6
							c0.4,0.3-0.1,0.3-0.6,0.3c-0.8,0-1.4-0.1-3.6-0.7c-0.1,0-0.7-0.1-0.9-0.1c-0.5-0.1-1.1,0-1.7,0.1c-1,0.1-3.2,2.8-3.2,2.8
							L184.2,125.2z"/>
						<path class="path2" d="M191.9,123.7c-1.5-2-3.1-2.8-4.1-3.1c0.2-0.7,0.5-1.6,1-1.9c0.6-0.4,1-0.3,1.2-0.1c1.7,1.3,6.3,5,7.6,6
							c0.2,0.1,0.1,0.4-0.1,0.5C196.8,125.1,192.1,123.7,191.9,123.7z"/>
						<path class="path21" d="M184.3,74.1c-1.7-3.5-5.4-5.5-9-4.5c-1.3-1.8-3.3-3-5.4-3.3c-4.1-0.6-9.4,1.4-8.9,5.7
							c-1.3,3-1,7.2,1.6,9.2c-0.5,4,3.5,7.5,8.2,7c1.9,2.6,5.2,4.1,8.2,3.5c0.7-0.1,1.9-0.4,2-0.4c-0.2,0,5.3,3.6,9.2-2.9
							C194.2,81.7,190.3,74.3,184.3,74.1z"/>
						<path class="path2" d="M160.2,105.6c0,0,8.7-3.9,8.8-3.4c1.1,3.5,4.5,2.4,6.5,8.6c0.8,2.6,1.7,19.8,1.7,19.8s3.4-2.8,8.3-7.8
							c0.4-0.4,4.1,3.1,4.1,3.1c-9.7,13.2-13.9,13.8-15.6,13.1c-3.4-1.5-10.5-23-10.5-23C162.7,114.3,160.2,105.6,160.2,105.6z"/>
						<path class="path19" d="M174.7,81.3c0,0,12.6,0,15.3-0.2c2.4-0.1,12.1,0.1,12.5,0.1c0.4,0,2.9-4.3,3.3-3.8
							c0.4,0.5-1.4,2.1-0.8,2.5c0.6,0.4,6.6-0.5,6.5-0.1c-0.1,0.8-3.7,0.7-3.6,1.1c0,0.4,3.7-0.2,3.9,0.4c0.2,0.7-3.5,0.3-3.7,0.6
							c-0.2,0.3,3.5,0.8,3.1,1.5c-0.2,0.3-3.2-0.6-3.2-0.1c0,0.5,2.2,1.5,2,1.9c-0.3,0.4-1.7-1.1-3-1.1c-1.3,0-2.2-0.7-4.2-0.1
							c-1,0.3-8.7,1.2-15.2,1.8c-6.7,0.6-12.2,0.8-12.2,0.8L174.7,81.3z"/>
						<path class="path22" d="M156,90.2c-0.2-2,0.2-3.6,0.3-4.2c-0.6-2.1-1.9-6.6-2.4-7.5c0,0,2.2-4.2,4.4-4.2c0,0,2.3,5.2,4.1,6.1
							c0,0,0.6,0.3,0.9,0.3c1.7,0,7.7-0.2,8.8-0.2l-0.6,8.5c-4.3,8.5-3.2,12.9-1.5,14.6c0.8,0.8-10.8,3.9-11.3,2.8
							C158,105.1,156.4,94.3,156,90.2z"/>
						<path class="path22" d="M169.1,80.8c1.1-0.5,9.1-0.3,9.1-0.3s1.1,5.6,0.2,6.9c0,0-7.1,1.1-6.9,1.6L169.1,80.8z"/>
						<path class="path19" d="M167,77.2c0,0-0.1,3,0,4.3c0.1,1.3-1.3,4.2-4,4.3c-2.7,0.1-0.4-2.8-0.2-4.1c0.2-1.2,0.5-6.1,0.5-6.1
							L167,77.2z"/>
						<path class="path23" d="M163.4,75.6c0,0-0.1,1.1-0.2,2.4c0.8,1,2.1,1.5,3.7,0.9c0-0.9,0.1-1.7,0.1-1.7L163.4,75.6z"/>
						<path class="path19" d="M167.2,68.2c0,0,1.5,0.5,2.4,2c0.8,1.5,1.2,5.8-2.1,7.6c-3.3,1.8-5.5-1.2-5.4-4
							C162.3,71.1,163.2,67.4,167.2,68.2z"/>
						<path class="path19" d="M161.5,72.9c0.2,0.7,0.7,1.1,1.1,1c0.4-0.1,0.5-0.8,0.3-1.5c-0.2-0.7-0.7-1.1-1.1-1
							C161.5,71.6,161.3,72.2,161.5,72.9z"/>
						<path class="path21" d="M166.8,68.1c0,0,1.7,4.5,3.4,5c1.7,0.5,1.5,2.7,1.5,2.7s0.3-5.1-1.2-6.4
							C168.9,68.2,166.8,68.1,166.8,68.1z"/>
						<path class="path19" d="M169.4,74c-0.3,0.7-0.1,1.4,0.4,1.6c0.5,0.2,1.1-0.2,1.4-0.9c0.3-0.7,0.1-1.4-0.4-1.6
							C170.3,72.9,169.7,73.3,169.4,74z"/>
					</g>
					<path class="path23" d="M148.9,50.7c0,0,3.7,0.2,4.1,0.2c0.4,0,1.7-1.3,1.7-1.3L148.9,50.7z"/>
				</g>
			</g>
			<path class="path19" d="M153,50.9l1.5-1.4c0,0-0.7-0.9-0.4-1c0.5-0.3,1.3,0.8,1.2,1c-0.1,0.3-1,1.1-1,1.1L153,50.9z"/>
		</g>
	</g>
</g>
</svg>
