<svg width="230" height="170" viewBox="0 0 230 170" fill="none" xmlns="http://www.w3.org/2000/svg">
<rect width="230" height="170" fill="white"/>
<g clip-path="url(#clip0_301_34)">
<path fill-rule="evenodd" clip-rule="evenodd" d="M112.219 143.862C96.9321 136.752 83.6547 125.099 74.8309 111.054C66.0285 97.0496 61.4024 80.8303 60.2706 60.0063C59.9101 53.3627 59.9101 45.0758 60.2687 34.6764L60.4315 29.9301L65.1156 29.1452C81.5985 26.3952 98.2713 24.9998 114.669 24.9998C131.066 24.9998 147.737 26.3952 164.218 29.1452L168.902 29.9301L169.067 34.6764C169.428 45.0777 169.428 53.3647 169.065 60.0063C167.931 80.8303 163.307 97.0496 154.505 111.054C145.683 125.099 132.402 136.752 117.117 143.862L114.669 145L112.219 143.862Z" fill="black"/>
<path fill-rule="evenodd" clip-rule="evenodd" d="M114.669 28.4214C98.1381 28.4214 80.9792 29.828 63.5637 32.8231C63.3037 39.7799 63.0073 50.533 63.5052 59.6579C64.614 80.0026 69.1085 95.7935 77.6501 109.354C86.1661 122.874 99.3542 134.5 114.669 141.404C129.983 134.5 143.17 122.874 151.686 109.354C160.229 95.7935 164.722 80.0026 165.832 59.6579C166.327 50.533 166.032 39.7799 165.772 32.8231C148.357 29.828 131.199 28.4214 114.669 28.4214ZM114.669 30.3814C130.964 30.3814 147.51 31.7622 163.868 34.4875C164.227 44.8081 164.226 53.0198 163.87 59.552C162.779 79.5501 158.381 95.0445 150.023 108.311C141.667 121.577 129.136 132.535 114.669 139.249C100.201 132.535 87.6703 121.577 79.3141 108.311C70.9567 95.0445 66.5567 79.5501 65.4677 59.552C65.1109 53.0198 65.1107 44.8081 65.4698 34.4875C81.8278 31.7622 98.3724 30.3814 114.669 30.3814Z" fill="white"/>
<path fill-rule="evenodd" clip-rule="evenodd" d="M80.4797 39.7164C80.3192 39.7125 80.1483 39.72 79.9676 39.7386C77.5471 39.991 75.1302 40.2688 72.7155 40.5736V47.7048C73.1341 47.6513 73.5539 47.6001 73.9725 47.5489V45.3425C75.9685 45.0983 77.968 44.8725 79.9676 44.6643C81.4134 44.5143 82.2214 43.9109 82.2214 42.4174V41.6102C82.2214 40.3329 81.6029 39.7439 80.4797 39.7164ZM80.3409 40.8503C80.6662 40.8166 80.9926 41.0634 80.9926 41.3902V42.8346C80.9926 43.1452 80.6662 43.4421 80.3409 43.477C78.2166 43.6945 76.0933 43.9342 73.9725 44.1924V41.567C76.0933 41.3076 78.2166 41.069 80.3409 40.8503Z" fill="white"/>
<path fill-rule="evenodd" clip-rule="evenodd" d="M112.349 37.9479C114.612 37.9316 116.875 37.9397 119.137 37.97V39.1192C116.719 39.0878 114.3 39.0808 111.881 39.1005C111.553 39.104 111.225 39.3867 111.225 39.7135V43.2867C111.225 43.6136 111.553 43.9369 111.881 43.9334C114.05 43.9148 116.219 43.9183 118.389 43.9428V42.0154C117.13 42.0015 115.87 41.9945 114.612 41.9956V40.8453C116.282 40.8453 117.951 40.8581 119.621 40.8825V45.1082C117.275 45.0733 114.929 45.064 112.584 45.078C110.866 45.0896 109.993 44.7942 109.993 43.1309V40.0229C109.993 38.4701 110.773 37.9595 112.349 37.9479V37.9479Z" fill="white"/>
<path fill-rule="evenodd" clip-rule="evenodd" d="M136.859 38.6936C135.506 38.6974 134.898 39.1243 134.898 40.5237V43.7081C134.898 45.4028 135.771 45.7335 137.485 45.8487C139.059 45.9557 140.63 46.0741 142.203 46.2032C143.9 46.3428 144.787 46.0542 144.787 44.4525V41.2681C144.787 39.6362 143.76 39.1999 142.203 39.072C140.63 38.9417 139.059 38.8244 137.485 38.7162C137.261 38.7011 137.052 38.693 136.859 38.6936ZM136.784 39.8198C138.826 39.9536 140.865 40.1072 142.904 40.2794C143.23 40.3073 143.557 40.6153 143.557 40.9875V44.5157C143.557 44.8414 143.23 45.1403 142.904 45.1124C140.865 44.9402 138.826 44.7865 136.784 44.6515C136.41 44.626 136.129 44.2831 136.129 43.9562V40.4293C136.129 40.0559 136.41 39.7942 136.784 39.8198Z" fill="white"/>
<path fill-rule="evenodd" clip-rule="evenodd" d="M106.905 38.0298V43.1884C106.905 44.8203 106.045 45.1785 104.314 45.232C102.806 45.2786 101.299 45.3344 99.7913 45.4018C98.1847 45.474 97.2029 45.1692 97.2029 43.5536V38.395L98.4342 38.3322V43.7083C98.4342 44.0352 98.7152 44.3015 99.0883 44.2841C101.065 44.1922 103.04 44.1177 105.016 44.0607C105.391 44.0503 105.641 43.7641 105.641 43.4373V38.0612C106.062 38.0496 106.483 38.0391 106.905 38.0298V38.0298Z" fill="white"/>
<path fill-rule="evenodd" clip-rule="evenodd" d="M122.703 38.0361C125.739 38.1082 128.774 38.2222 131.809 38.378V39.5272C129.185 39.3935 126.561 39.2899 123.935 39.2178V40.973C126.271 41.0382 128.605 41.1266 130.938 41.2394V42.3897C128.605 42.2769 126.271 42.1874 123.935 42.1234V44.0496C126.561 44.1217 129.185 44.2252 131.809 44.3601V45.5093C128.774 45.3546 125.739 45.2406 122.703 45.1673V38.0361Z" fill="white"/>
<path fill-rule="evenodd" clip-rule="evenodd" d="M94.1143 38.5701V39.7193C91.4921 39.8809 88.8711 40.0729 86.2524 40.295V42.0514C88.5819 41.8525 90.9126 41.6792 93.2445 41.5303V42.6806C90.9126 42.8295 88.5819 43.0028 86.2524 43.2006V45.1279C88.8711 44.9046 91.4921 44.7127 94.1143 44.5522V45.7013C91.0817 45.8874 88.0514 46.1154 85.0223 46.3841V39.2517C88.0514 38.983 91.0817 38.7562 94.1143 38.5701Z" fill="white"/>
<path fill-rule="evenodd" clip-rule="evenodd" d="M147.068 39.5073C150.256 39.8167 153.441 40.1726 156.621 40.5728V41.7231C155.246 41.5498 153.869 41.3846 152.491 41.2288V47.2109C152.073 47.1632 151.654 47.1167 151.233 47.0701V41.088C149.847 40.9357 148.457 40.7926 147.068 40.6577V39.5073Z" fill="white"/>
<path fill-rule="evenodd" clip-rule="evenodd" d="M104.892 53.1542C110.745 52.6413 118.665 52.5017 126.231 53.0728C126.661 53.1054 127.08 53.2066 127.478 53.3741C129.956 54.4139 134.354 56.6891 139.244 59.4795C139.46 59.6028 139.663 59.747 139.849 59.911C141.145 61.0497 144.427 64.3996 144.427 64.3996L143.403 64.1972C143.26 64.1693 143.125 64.1135 143.004 64.0321C140.934 62.6444 137.91 60.838 135.377 59.5644C135.076 59.4143 134.751 59.3178 134.416 59.2829C133.184 59.1515 131.517 59.0363 130.427 58.9921C129.89 58.97 129.524 58.8804 128.998 58.6141C127.993 58.1058 125.558 57.0043 124.346 56.5425C123.827 56.3448 123.562 56.2982 123.054 56.3064C120.97 56.3366 116.224 56.4878 113.8 56.6379C113.716 56.6425 113.636 56.639 113.554 56.6262L112.399 56.4459C115.675 55.883 123.773 55.163 127.125 54.9873L125.761 54.5325C125.498 54.4453 125.224 54.3988 124.945 54.3918C124.217 54.3745 122.599 54.3423 120.499 54.3394L119.781 54.3396C116.6 54.3458 112.506 54.4237 108.731 54.707C108.401 54.7314 108.079 54.8105 107.776 54.9443C106.251 55.6125 102.532 57.624 98.8022 59.6901L97.9741 60.1496C97.0098 60.6855 96.0557 61.2187 95.1498 61.7267C95.1498 61.7267 95.615 61.13 95.7048 61.0136C95.784 60.9124 95.8085 60.8938 95.9158 60.824C96.0657 60.726 96.5773 60.3898 97.0932 60.0486L97.4753 59.7955C97.785 59.5898 98.0615 59.405 98.2173 59.298C98.2943 59.2456 98.3433 59.2084 98.44 59.1363C99.5628 58.2919 101.335 56.803 102.391 55.8806C102.63 55.6724 102.833 55.4305 103 55.1606C103.342 54.6093 103.715 54.0115 103.944 53.68C104.14 53.3927 104.475 53.1914 104.892 53.1542V53.1542Z" fill="white"/>
<path fill-rule="evenodd" clip-rule="evenodd" d="M107.728 58.7962C107.862 58.7951 107.946 58.9393 107.879 59.0544L105.051 63.9129C104.893 64.199 104.63 64.4119 104.317 64.5061L99.0136 66.1613C98.398 66.3474 97.878 66.4474 97.2368 66.4963C96.0603 66.5847 92.566 66.694 92.566 66.694L92.643 66.5288C92.6791 66.4509 92.7433 66.3892 92.8225 66.3555L94.4758 65.6553C94.5994 65.603 94.7079 65.5227 94.7906 65.4192L97.344 62.2833C97.4804 62.1158 97.6588 61.9553 97.8489 61.8553C99.536 60.9701 102.536 59.6407 104.637 58.9404C104.835 58.8741 105.102 58.8323 105.311 58.8299L107.728 58.7962Z" fill="white"/>
<path fill-rule="evenodd" clip-rule="evenodd" d="M94.5276 67.5255C94.6384 67.5162 94.7433 67.5779 94.7865 67.6791C94.9322 68.0175 94.8926 68.3956 94.7515 68.7189C94.6967 68.8504 94.5276 68.9783 94.3889 69.0086L93.2288 69.2656C93.1588 69.2807 93.0947 69.2249 93.0994 69.154L93.2078 67.7954C93.216 67.7035 93.2882 67.6302 93.3804 67.6232L94.5276 67.5255Z" fill="white"/>
<path fill-rule="evenodd" clip-rule="evenodd" d="M120.254 61.7886C120.428 61.7584 120.606 61.7828 120.766 61.8584L121.977 62.4365C122.096 62.4935 122.184 62.6017 122.215 62.7319C122.38 63.4228 122.581 64.3382 122.717 65.1164C122.771 65.4398 122.711 65.7701 122.546 66.0551C122.045 66.9239 121.015 68.4872 120.439 69.327C120.311 69.5154 120.296 69.7434 120.336 69.9679C120.597 71.4079 121.686 76.4362 121.686 76.4362L121 75.8139C120.864 75.6883 120.774 75.5557 120.716 75.3824C120.228 73.9598 119.317 70.988 118.897 69.5422C118.829 69.3037 118.881 69.049 119.038 68.8594C119.753 67.994 120.794 66.6099 121.403 65.7329C121.573 65.4863 121.629 65.2141 121.528 65.0106C121.389 64.7244 121.153 64.2894 120.927 63.8951C120.866 63.7858 120.765 63.7043 120.645 63.6648L119.823 63.4019C119.679 63.3565 119.525 63.3589 119.383 63.4101C117.592 64.0579 115.183 64.992 113.71 65.6014C113.494 65.691 113.405 65.698 113.144 65.6584C112.717 65.5956 111.475 65.3735 110.865 65.2595C110.755 65.2385 110.7 65.1152 110.756 65.0187L111.479 63.7695C111.577 63.6008 111.739 63.481 111.93 63.438C114.255 62.9099 117.33 62.3027 120.254 61.7886V61.7886Z" fill="white"/>
<path fill-rule="evenodd" clip-rule="evenodd" d="M94.9765 63.0978L94.5008 63.6817C94.474 63.7073 94.4483 63.7317 94.4215 63.7585C94.0029 64.0667 92.2412 65.4125 91.7643 65.7893C91.6291 65.8963 91.5755 65.9894 91.544 66.158C91.4367 66.7536 91.2583 67.8853 91.2059 68.5123C91.1907 68.696 91.1114 68.7868 90.9237 68.8624C90.1064 69.1939 89.1375 69.5428 88.354 69.8557C88.1861 69.922 88.1395 69.9476 88.0404 70.0232C87.9622 70.0837 86.9211 71.0107 86.9211 71.0107C86.9211 71.0107 89.1841 70.4547 90.0143 70.2674C90.2125 70.2232 90.2976 70.2349 90.4807 70.321C90.652 70.4001 90.9377 70.5129 91.0881 70.5675C91.319 70.6525 91.4414 70.649 91.6967 70.5931C92.6318 70.3849 94.2046 70.0127 95.0418 69.7952C95.4767 69.6824 95.7145 69.5649 96.083 69.3079C96.484 69.0299 97.4996 68.2703 97.4996 68.2703C97.4996 68.2703 97.4809 68.4041 97.4669 68.4785C97.4564 68.5425 97.4331 68.5786 97.3911 68.6286C97.1848 68.8763 96.8233 69.2799 96.6438 69.4649C96.2322 69.8894 95.9862 70.0406 95.4697 70.2558C93.0912 71.2445 89.0267 72.7799 85.9778 73.8325C85.7785 73.9023 85.6922 73.9593 85.5441 74.1105C85.3832 74.2733 85.1687 74.5106 85.1687 74.5106C85.1687 74.5106 87.6544 74.6909 88.4135 74.7782C88.6595 74.8061 88.8355 74.8863 89.0233 75.048C89.647 75.5831 91.7119 77.7035 92.3298 78.4398C92.3298 78.4398 86.4594 79.4133 83.7393 80.0868C83.4035 80.1694 83.2356 80.3822 83.1598 80.6509C82.9348 81.4395 82.4043 83.9752 82.4043 83.9752C82.4043 83.9752 82.2154 83.9147 81.9519 83.7635C81.7712 83.66 81.6791 83.5739 81.4808 83.3645C80.8372 82.6864 79.7798 81.3883 79.2714 80.6358C79.1222 80.4136 79.0592 80.131 79.2458 79.9042C79.7972 79.2272 80.9049 77.9919 81.5158 77.3569C81.5811 77.2882 81.6639 77.1684 81.7513 76.9963C81.9569 76.589 82.2279 75.5574 82.3223 75.1848L82.3524 75.0644L82.3564 75.048C82.3564 75.048 82.3506 75.0516 82.3401 75.0583L82.2285 75.1282C82.0773 75.2231 81.8329 75.3764 81.728 75.4423C81.5706 75.5423 81.5275 75.5854 81.4622 75.7226C81.3631 75.9297 81.1893 76.2565 81.0576 76.4833C81.0144 76.5578 80.899 76.6729 80.8372 76.7206C80.0572 77.315 79.1956 77.9535 78.5823 78.3839C78.5403 78.413 78.4867 78.4002 78.4506 78.3653C78.3724 78.2874 78.0448 77.9163 77.9865 77.8291C77.9376 77.7558 77.9153 77.6872 77.9153 77.5988C77.9142 77.4441 77.9294 77.1719 77.9446 76.9695C77.9632 76.7299 78.032 76.6159 78.3246 76.3135C78.6523 75.975 79.009 75.6191 79.3845 75.2539C80.3044 74.4815 82.6269 72.6019 86.7741 69.6498C86.8523 69.594 86.9234 69.5288 86.9805 69.4509C87.4166 68.8647 88.6536 67.2642 88.9591 66.8838C89.0022 66.8303 89.05 66.7803 89.1048 66.7373C89.5934 66.3523 89.8347 66.1859 90.3302 65.8742C91.4857 65.1484 93.7231 63.8247 94.9765 63.0978L94.9765 63.0978Z" fill="white"/>
<path fill-rule="evenodd" clip-rule="evenodd" d="M85.6002 83.0444L85.0883 86.5676L83.3476 84.5298C83.6647 83.8447 84.5916 83.198 85.6002 83.0444Z" fill="white"/>
<path fill-rule="evenodd" clip-rule="evenodd" d="M97.0648 84.9136C96.1974 86.3373 95.1608 87.8494 94.3773 88.7938C94.2747 88.9171 94.1383 89.0125 93.9833 89.0707C93.1263 89.3905 91.698 89.8721 90.6464 90.192L97.0648 84.9136Z" fill="white"/>
<path fill-rule="evenodd" clip-rule="evenodd" d="M134.072 62.0395C134.531 61.8709 135.035 61.8825 135.486 62.0721C138.986 63.5377 144.872 66.9852 148.143 69.4139C148.459 69.6489 148.585 69.8105 148.668 70.1897C149.436 73.6745 149.728 79.0611 149.244 83.5962C149.209 83.9219 149.144 84.1173 148.973 84.4651C146.9 88.6931 144.567 92.6723 142.112 95.7418L142.117 95.6916C142.149 95.3647 142.325 93.5217 142.335 92.5245C142.336 92.4117 142.388 92.3082 142.478 92.2396C142.934 91.886 143.56 91.3835 143.914 91.0776C144.087 90.9287 144.183 90.817 144.272 90.6728C145.273 89.0607 147.061 85.6852 147.782 83.6544C147.958 83.1589 148.028 82.6343 147.985 82.1097C147.754 79.2797 147.308 75.3588 146.645 72.7998C146.532 72.3637 146.243 71.9949 145.841 71.7891C145.268 71.4959 144.145 70.9853 141.588 69.9629C141.234 69.821 140.903 69.6244 140.611 69.3802C138.935 67.9751 136.314 65.8686 134.683 64.6566C134.206 64.3019 133.597 64.1727 133.016 64.3042C131.828 64.5729 130.316 64.9474 129.465 65.1777C129.176 65.2556 129.062 65.2626 128.763 65.2277C128.608 65.2097 128.407 65.1901 128.196 65.171L127.876 65.1429C127.504 65.1112 127.156 65.0844 127.019 65.0741L126.958 65.0696C129.732 63.7703 132.401 62.649 134.072 62.0395L134.072 62.0395Z" fill="white"/>
<path fill-rule="evenodd" clip-rule="evenodd" d="M92.7736 79.9168C93.0487 79.8284 93.3414 79.818 93.6212 79.8854C94.8828 80.1878 97.5527 80.8404 99.571 81.3556C99.8543 81.4278 100.208 81.6918 100.358 81.9419L100.798 82.6712C100.951 82.9271 100.962 83.2411 100.826 83.5063C100.459 84.2157 99.9354 85.1763 99.3822 86.1668L98.9637 86.9118C98.1934 88.2753 97.4262 89.5907 96.9908 90.2828C96.7039 90.7399 96.5442 90.9423 96.0335 91.1226C94.0479 91.8193 91.582 92.6522 90.1164 93.1256C89.8168 93.2221 89.7154 93.4036 89.7736 93.7351C89.8786 94.3387 90.2167 96.3882 90.3461 96.9861C90.3939 97.2071 90.5711 97.3827 90.8999 97.3199C91.7662 97.1559 94.0724 96.5929 94.0724 96.5929C94.0724 96.5929 93.3927 97.2198 92.9858 97.5897C92.9112 97.6595 92.8249 97.7107 92.7281 97.7421C92.0997 97.9515 90.5653 98.3807 90.0873 98.4854C89.7142 98.5656 89.4763 98.4191 89.3807 97.998C89.3807 97.998 88.7266 95.2204 88.49 94.2759C88.4526 94.1317 88.4153 94.0072 88.3699 93.8653C88.1926 93.3186 87.7671 92.2439 87.5269 91.6809C87.4989 91.6158 87.4849 91.546 87.486 91.4739C87.493 90.8307 87.612 89.3953 87.612 89.3953C87.612 89.3953 89.024 90.7155 89.7072 91.1924C89.8611 91.3006 89.9532 91.3227 90.1421 91.275C91.0807 91.0342 93.2388 90.3224 94.4234 89.8804C94.6939 89.7792 94.9306 89.6094 95.1148 89.3872C96.3402 87.9112 97.8769 85.6151 98.7641 83.8832C98.8866 83.6447 98.9099 83.3714 98.8329 83.1155L98.6417 82.4874C98.5857 82.3036 98.391 82.0966 98.2115 82.0279C96.1233 81.2358 94.477 80.6473 92.5427 79.9901L92.7736 79.9168Z" fill="white"/>
<path fill-rule="evenodd" clip-rule="evenodd" d="M130.191 72.8123L130.913 73.1251C131.126 73.217 131.321 73.352 131.482 73.5194C135.906 78.1255 139.445 82.9014 140.154 84.16C140.29 84.4019 140.383 84.6438 140.417 84.9207C141.212 91.6378 140.529 98.754 138.905 104.944C138.758 105.503 138.594 105.789 138.055 106.192C136.321 107.493 133.733 109.568 131.159 111.682L130.347 112.351C127.247 114.911 124.301 117.418 123.051 118.572C122.737 118.863 122.463 119.191 122.239 119.555C121.653 120.505 120.758 122.14 120.319 122.952L120.196 123.179C120.108 123.343 120.057 123.438 120.057 123.438C119.474 122.169 118.203 119.073 117.767 117.822C117.624 117.413 117.599 117.199 117.749 116.653C118.46 114.058 121.822 106.513 122.476 105.149L122.477 105.707C122.477 105.789 122.464 105.869 122.439 105.946C122.144 106.838 120.336 112.784 119.969 115.363C119.887 115.936 119.894 116.091 119.969 116.654C120.13 117.858 120.852 120.065 120.852 120.065C120.852 120.065 121.28 119.174 121.678 118.572C121.874 118.276 121.992 118.134 122.311 117.818C123.927 116.224 126.684 113.76 129.556 111.282L130.572 110.408C132.778 108.52 134.98 106.682 136.72 105.278C137.172 104.913 137.341 104.669 137.442 103.975C137.941 100.56 138.085 94.4306 137.785 89.9699C137.727 89.1278 137.453 88.3136 136.978 87.6145C135.886 86.0059 134.582 84.4833 132.603 82.5281C132.321 82.2477 132.129 81.8895 132.056 81.4987C131.479 78.4279 130.191 72.8123 130.191 72.8123H130.191Z" fill="white"/>
<path fill-rule="evenodd" clip-rule="evenodd" d="M106.895 75.0477C106.895 75.0477 107.297 76.3468 107.685 77.7575L107.82 78.2581C108.065 79.1773 108.284 80.0847 108.363 80.6588C108.439 81.2113 108.426 81.3601 108.229 81.8894C107.751 83.1571 106.872 85.1962 105.934 87.2808L105.529 88.1749C104.379 90.704 103.213 93.1472 102.648 94.2048C102.369 94.7259 102.107 95.0655 101.582 95.5971C100.385 96.8126 98.0923 99.1098 96.6734 100.395C96.158 100.863 96.0193 101.262 95.9143 101.866C95.7453 102.838 95.5774 104.495 95.5307 105.351C95.4899 106.104 95.6124 106.456 96.0333 107.202C98.5342 111.651 106.883 121.887 109.262 124.036C109.434 124.192 109.56 124.297 109.924 124.537C110.274 124.77 111.414 125.508 111.414 125.508C111.46 125.539 111.498 125.581 111.527 125.628L111.94 126.353C111.94 126.353 111.902 126.334 111.832 126.3L111.654 126.211C111.51 126.14 111.321 126.046 111.103 125.937L110.573 125.673C109.76 125.266 108.792 124.777 108.283 124.504C108.073 124.391 107.876 124.258 107.693 124.106C104.907 121.798 96.3714 111.836 93.8611 107.676C93.235 106.638 93.1709 106.302 93.2548 105.319C93.4122 103.489 93.6559 101.188 93.8693 100.18C93.9987 99.5716 94.1328 99.2145 94.6003 98.6771C96.1715 96.8733 98.0879 94.492 99.9553 92.0486L100.612 91.1845C103.442 87.4361 106.049 83.6844 107.022 81.7731C107.245 81.338 107.264 81.1868 107.268 80.7762C107.281 79.5852 106.9 77.2659 106.799 76.6796C106.784 76.5877 106.78 76.4947 106.788 76.4016L106.895 75.0477Z" fill="white"/>
<path fill-rule="evenodd" clip-rule="evenodd" d="M114.526 89.7906C114.526 89.7906 114.848 91.6947 114.946 92.2472C115.001 92.5601 115.012 92.6439 114.933 92.9509C114.676 93.9383 113.488 99.1429 112.537 104.471L112.389 105.312C112 107.556 111.665 109.784 111.469 111.689C111.358 112.772 111.394 113.032 111.681 113.992C112.494 116.707 115.5 123.8 116.077 125.093C116.141 125.237 116.179 125.387 116.198 125.541L116.415 127.214C115.452 125.763 110.219 116.171 108.164 110.859C107.921 110.233 107.874 109.925 108.143 108.774C109.572 102.671 113.439 92.3007 114.526 89.7906H114.526Z" fill="white"/>
</g>
<defs>
<clipPath id="clip0_301_34">
<rect width="109.336" height="120" fill="white" transform="translate(60 25)"/>
</clipPath>
</defs>
</svg>
